<svg xmlns="http://www.w3.org/2000/svg" fill="#000000" height="800" width="800" viewBox="0 0 60 60" xmlns:v="https://vecta.io/nano"><path d="M30 0C20.203 0 11.489 4.722 6.01 12.008c-.011.013-.026.021-.036.035-.121.161-.228.332-.345.495a29.51 29.51 0 0 0-.614.881c-.15.226-.295.455-.439.684a30.6 30.6 0 0 0-.545.906l-.349.606c-.267.487-.521.982-.762 1.484-.079.165-.15.332-.225.498-.179.392-.35.787-.512 1.188l-.217.55c-.18.471-.349.948-.505 1.431l-.089.263a30.35 30.35 0 0 0-.482 1.726c-.04.161-.075.323-.112.484a29.59 29.59 0 0 0-.277 1.337l-.095.53a29.21 29.21 0 0 0-.238 1.736c-.002.018-.006.036-.007.054l-.002.014-.013.158-.08.932h.008l-.046.882A25.39 25.39 0 0 0 0 30c0 .667.03 1.327.073 1.983.001.009 0 .017.001.026l.04.515.003.035.082.844.122.971.017.127c.097.636.214 1.247.346 1.852.005.024.008.048.013.072l.105.454c.014.062.032.125.046.186l.158.634c.078.298.164.605.261.934l.043.151c.008.027.019.054.028.081.17.549.359 1.09.559 1.625.017.046.03.093.048.139l.135.345.214.521.096.233.412.932.063.137c.025.053.055.103.08.155a30.2 30.2 0 0 0 .719 1.399c.036.067.068.137.105.204l.115.198c.303.536.622 1.062.994 1.635l.067.104c.048.072.101.138.149.21a30.18 30.18 0 0 0 .895 1.26c.053.071.1.147.154.217.393.515.822 1.038 1.289 1.571l.069.08c.07.079.149.153.22.232a29.91 29.91 0 0 0 1.081 1.143c.172.172.355.339.533.508a29.7 29.7 0 0 0 .805.742c.118.105.226.215.346.319.09.077.187.146.278.222.369.309.745.609 1.128.9.195.148.393.291.592.434.355.256.715.506 1.081.747.096.063.188.135.285.197l.056.036c.086.055.179.103.266.157a29.46 29.46 0 0 0 1.427.84l.193.106a30.86 30.86 0 0 0 1.587.792c.071.033.139.073.211.105l1.41.644v-.052C22.409 59.25 26.117 60 30 60c16.542 0 30-13.458 30-30S46.542 0 30 0zM18.646 47.236l-1.293-1.094C16.618 45.164 16 43.816 16 42a1 1 0 1 0-2 0c0 3.379 1.676 5.5 3 6.7v6.088l-.12-.062c-.59-.314-1.166-.652-1.729-1.005l-.525-.337a28.2 28.2 0 0 1-1.058-.734l-.449-.33c-.377-.286-.75-.586-1.12-.897-.188-.158-.372-.319-.556-.481a28.72 28.72 0 0 1-.727-.671l-.509-.486a28.4 28.4 0 0 1-1.012-1.071c-.568-.631-1.11-1.287-1.62-1.968a28.31 28.31 0 0 1-.819-1.156c-.162-.24-.315-.487-.47-.732s-.304-.493-.451-.743l-.411-.714c-.237-.433-.463-.871-.677-1.318-.111-.231-.213-.466-.317-.701l-.385-.903-.275-.695c-.186-.497-.361-1-.519-1.509-.111-.359-.213-.723-.31-1.089l-.165-.668-.142-.612-.116-.568-.136-.758-.069-.414c-.009-.063-.015-.128-.024-.191-.076-.533-.135-1.072-.18-1.614l-.038-.499C2.028 31.246 2 30.626 2 30c0-.338.014-.673.026-1.008.026-.58.071-1.195.143-1.888l.039-.452.072-.562.111-.723.122-.683.149-.717.154-.665.188-.715.185-.649.224-.701.218-.644c.079-.222.165-.442.25-.663l.262-.662c.083-.2.173-.398.261-.597l.317-.7c.079-.165.164-.327.245-.49l.399-.778c.052-.095.108-.188.161-.283A26.73 26.73 0 0 1 6 15.595v3.694a2.71 2.71 0 0 0 2.707 2.708l1.258.002c3.48.124 6.472 1.777 9.147 5.057.195.239.427.434.682.587-.448.605-.841 1.259-1.134 1.981a1 1 0 0 0 .551 1.303c.514.209 1.095-.039 1.302-.551.482-1.19 1.27-2.177 2.238-2.921a7 7 0 0 1 .705-.475c.151-.089.299-.184.457-.261l.091-.047a6.98 6.98 0 0 1 1.878-.579c.058-.007.114-.017.172-.022A7.07 7.07 0 0 1 27 26a7 7 0 0 1 .931.07l.229.033a7.03 7.03 0 0 1 .847.193c.079.024.156.055.235.082a6.84 6.84 0 0 1 .583.228c.107.047.215.093.319.146.221.111.436.234.644.369.123.08.242.169.361.257.109.081.216.165.32.252.118.098.236.195.348.302.707.674 1.285 1.496 1.669 2.445a1 1 0 0 0 .928.623c.125 0 .252-.023.375-.073a1 1 0 0 0 .551-1.303c-.294-.724-.688-1.381-1.137-1.987.5-.378.859-.92.98-1.576.272-1.486.786-2.614 1.525-3.354l.292-.293v-5.707l-1.251.325c-.165.042-4.045 1.055-6.177 2.063-1.429.678-2.082.012-3.577-2.072-.539-.751-1.097-1.528-1.789-2.225-1.24-1.247-1.571-3.069-.753-4.148.896-1.183 2.726-2.541 8.229-.702l.195.065.205-.018c.061-.003 5.958-.46 9.059 2.394C42.392 13.54 43 15.048 43 17c0 5.217 1 8.207 1.84 9.796 1.425 2.699 2.153 5.356 2.162 7.897.012 3.379-.889 5.927-2.678 7.57l-.179.164-.083.228C44.045 42.699 42.383 47 35 47h-.19l-.177.07c-.111.044-11.093 4.308-15.987.166zM30 58c-3.903 0-7.621-.805-11-2.254V50c.082 0 .158-.035.238-.055 5.759 2.687 14.532-.41 15.95-.945 7.672-.068 10.143-4.327 10.648-5.412 2.114-2.039 3.179-5.031 3.166-8.901-.01-2.866-.815-5.835-2.393-8.823C45.875 24.473 45 21.808 45 17c0-2.507-.842-4.554-2.504-6.082-3.412-3.14-9.172-2.995-10.368-2.929-4.946-1.614-8.306-1.139-10.27 1.454-1.429 1.887-1.029 4.795.929 6.766.58.583 1.09 1.293 1.583 1.98 1.333 1.856 2.991 4.167 6.057 2.715 1.256-.594 3.273-1.216 4.573-1.591v2.295c-.873 1.011-1.472 2.385-1.785 4.092-.043.234-.199.383-.379.457-.159-.136-.328-.258-.495-.383a8.58 8.58 0 0 0-.596-.407 9.17 9.17 0 0 0-.693-.397l-.291-.143c-.75-.351-1.546-.593-2.373-.72l-.066-.009a8.71 8.71 0 0 0-1.256-.094c-.023.001-.044-.004-.066-.004-.009 0-.017.002-.026.002a8.91 8.91 0 0 0-1.038.069c-.051.004-.101.015-.151.02-.074.01-.149.017-.223.029-.844.104-1.652.354-2.399.738-.054.026-.106.055-.16.082-.062.034-.128.061-.189.096-.203.107-.397.228-.591.35a8.65 8.65 0 0 0-.563.388c-.109.08-.222.155-.327.24-.246.061-.511-.024-.672-.223-3.06-3.751-6.536-5.646-10.622-5.79a253.49 253.49 0 0 0-1.331-.004.71.71 0 0 1-.708-.708v-6.57C13.13 6.196 21.082 2 30 2c15.439 0 28 12.561 28 28S45.439 58 30 58z"/></svg>